<svg xmlns="http://www.w3.org/2000/svg" xmlns:xlink="http://www.w3.org/1999/xlink" width="547" height="336" viewBox="0 0 547 336">
    <defs>
        <path id="a" d="M30.551 14.13c.688 8.452-5.464 15.873-13.746 16.575-8.28.702-15.55-5.58-16.238-14.031C-.12 8.222 6.034.802 14.314.099c8.28-.702 15.55 5.58 16.237 14.032"/>
    </defs>
    <g fill="none" fill-rule="evenodd">
        <path fill="#F8F3FA" d="M119.274 78.178c13.079-12.373 30.732-19.96 50.158-19.96h26.332a47.546 47.546 0 0 1-1.238-10.812C194.526 21.224 215.75 0 241.932 0h257.662C525.776 0 547 21.224 547 47.406s-21.224 47.406-47.406 47.406h-17.172c6.178 10.716 9.712 23.148 9.712 36.406v76.703h1.655c9.186 0 16.633 7.447 16.633 16.633 0 9.187-7.447 16.634-16.633 16.634h-2.83c-6.18 34.056-35.987 59.881-71.825 59.881h-68.318C345.339 321.2 326.932 336 305.068 336H47.406C21.224 336 0 314.776 0 288.594s21.224-47.406 47.406-47.406h34.07c-9.187 0-16.634-7.447-16.634-16.634 0-9.186 7.447-16.633 16.634-16.633h14.956v-76.703a73.06 73.06 0 0 1 2.709-19.772H71.5c-9.187 0-16.634-7.448-16.634-16.634 0-9.187 7.447-16.634 16.634-16.634h47.774z"/>
        <path fill="#A9D979" d="M399.679 257s-30.675-12.787-15.43-73c0 0 35.932 28.774 15.43 73"/>
        <path fill="#A9D979" d="M398 254s-15.502-1.361-31-38c0 0 22.421 7.972 31 38"/>
        <path fill="#B8E986" d="M399.512 256s-33.166-39.76 18.323-88c0 0 29.904 66.676-18.323 88"/>
        <path fill="#417505" d="M399.977 262l-.192-.018a.995.995 0 0 1-.767-1.167l15.05-77.018a1 1 0 0 1 1.146-.782.997.997 0 0 1 .768 1.168l-15.05 77.018a.982.982 0 0 1-.955.799"/>
        <path fill="#417505" d="M409.975 209c-.416 0-.8-.247-.93-.63-.162-.473.124-.978.638-1.127l11.05-3.203c.503-.144 1.06.115 1.222.587.161.475-.125.98-.638 1.13l-11.05 3.202-.292.041M404.976 237c-.416 0-.8-.247-.931-.63-.161-.473.125-.978.638-1.126l11.048-3.201c.514-.152 1.062.112 1.225.588.16.472-.126.977-.639 1.126l-11.05 3.2-.291.043M407.048 225a.92.92 0 0 1-.706-.337l-10.1-11.974a1.06 1.06 0 0 1 .073-1.43.912.912 0 0 1 1.344.077l10.097 11.974c.351.417.32 1.056-.072 1.43a.911.911 0 0 1-.636.26"/>
        <path fill="#130F1F" d="M407.707 254h-19.415c-.8 0-1.41.703-1.273 1.473l3.773 21.48a1.284 1.284 0 0 0 1.274 1.047h12.86c.651 0 1.2-.472 1.281-1.1l2.783-21.481c.096-.752-.504-1.419-1.283-1.419"/>
        <path fill="#BA99D3" d="M198 280h101v-91H198z"/>
        <path fill="#F0AB92" d="M240 89.05l3.032 18.95L255 105.562 248.973 80 240 89.05"/>
        <path fill="#F0AB92" d="M254 75c0 8.284-6.716 15-15 15-8.284 0-15-6.716-15-15 0-8.284 6.716-15 15-15 8.284 0 15 6.716 15 15M209 273.821c-.147-.84-.972-21.821-.972-21.821l-11.028.162.837 21.838 11.163-.179"/>
        <path fill="#1B191D" d="M179 279l31-.32-.137-9.68-21.405.221c-5.266.042-9.499 4.422-9.457 9.779"/>
        <path fill="#22283A" d="M233 193.155h-33.323l11.654-11.99.875 74.134-19.727.701-4.458-74.008c-.376-6.238 4.413-11.598 10.698-11.972.215-.012.43-.018.644-.02l.314.002H233v23.153"/>
        <path fill="#E79516" d="M204.808 150c-1.39 0-2.795-.37-4.064-1.148-3.683-2.251-4.847-7.07-2.599-10.76l23.373-38.342a7.806 7.806 0 0 1 10.74-2.602c3.681 2.251 4.845 7.07 2.597 10.758l-23.372 38.344a7.804 7.804 0 0 1-6.675 3.75"/>
        <path fill="#F59D15" d="M229 95h35.998c5.167 0 9.274 4.329 8.988 9.473L267.104 165l-42.9-.307-4.182-60.096C219.661 99.409 223.785 95 229 95"/>
        <path fill="#34446D" d="M112.46 280l-.242-.02c-.795-.13-1.331-.859-1.198-1.63l19.08-111.168c.136-.77.888-1.288 1.682-1.163.793.13 1.331.86 1.198 1.632l-19.082 111.165c-.12.692-.739 1.184-1.437 1.184"/>
        <path fill="#323955" d="M160.54 279c-.701 0-1.318-.49-1.438-1.178l-19.082-110.18c-.133-.77.403-1.496 1.199-1.625.798-.117 1.545.391 1.679 1.158l19.082 110.18c.133.77-.403 1.496-1.197 1.625l-.244.02"/>
        <path fill="#34446D" d="M284.46 279l-.242-.02c-.795-.128-1.33-.854-1.198-1.622l19.081-110.18c.136-.768.894-1.284 1.68-1.16.793.13 1.331.858 1.2 1.625l-19.082 110.18c-.12.689-.739 1.177-1.439 1.177"/>
        <path fill="#323955" d="M331.538 279c-.702 0-1.318-.488-1.437-1.178L311.02 167.641c-.132-.767.403-1.494 1.2-1.624.798-.117 1.545.391 1.679 1.159l19.081 110.182c.132.768-.406 1.494-1.2 1.622l-.242.02"/>
        <path fill="#F0AB92" d="M243.623 273.821c-.155-.84.377-21.821.377-21.821l-11.48.162L232 274l11.623-.179"/>
        <path fill="#1B191D" d="M213 279l31-.32-.139-9.68-21.405.221c-5.264.042-9.499 4.422-9.456 9.779"/>
        <path fill="#F0AB92" d="M217.74 150.208c1.768-3.72 6.13-5.263 9.745-3.445a7.325 7.325 0 0 1 2.829 2.536l10.86.437L245 157.15l-15.273 1.33c-2.118 2.455-5.634 3.27-8.638 1.76-3.614-1.819-5.114-6.309-3.348-10.031"/>
        <path fill="#2D324F" d="M259.306 190.749L226.402 198l-.401-18.663c-.076-5.134 3.978-9.337 9.005-9.337H269v10.851c0 5.465-3.648 8.784-9.694 9.898"/>
        <path fill="#2D324F" d="M249 181l-2.129 78h-18.993L226 187.206 249 181"/>
        <path fill="#BFC1BE" d="M255.704 161H215v-5h40.704c1.267 0 2.296 1.12 2.296 2.5 0 1.382-1.029 2.5-2.296 2.5"/>
        <path fill="#D3D4D5" d="M220 161h-53.699c-3.092 0-5.807-2.091-6.635-5.116l-10.472-38.168c-.925-3.376 1.575-6.716 5.027-6.716h49.32c2.065 0 3.871 1.412 4.396 3.438L220 161"/>
        <path fill="#FFFFFE" d="M189 139a5 5 0 0 1-10 0 5 5 0 1 1 10 0"/>
        <path fill="#E79516" d="M239.172 161L239 145.17l24.484-.278-5.237-40.04c-.506-4.34 2.539-8.28 6.802-8.796 4.264-.516 8.13 2.585 8.639 6.926l6.257 48.791c.261 2.23-.42 4.47-1.878 6.157a7.725 7.725 0 0 1-5.755 2.693l-33.14.377"/>
        <path fill="#34446D" d="M109 172h240v-11H109z"/>
        <g transform="translate(224 60)">
            <mask id="b" fill="#fff">
                <use xlink:href="#a"/>
            </mask>
            <path fill="#1F1F34" d="M.447 7.88s-.76 7.485 20.633.923l2.805 10.048s3.878 15.246 3.878 13.333c0-1.912 14.162-30.495-8.796-35.152C-2.498-7.32.447 7.88.447 7.88" mask="url(#b)"/>
        </g>
        <path fill="#F0AB92" d="M244.053 76.645a4 4 0 1 0 7.893-1.29 4 4 0 0 0-7.893 1.29"/>
        <path fill="#B6CCD7" d="M436.235 279.383L91.773 281c-.424.001-.77-.306-.773-.69-.002-.382.34-.693.765-.696L436.227 278c.424-.003.77.304.773.688.002.38-.34.694-.765.695"/>
        <path fill="#FFFFFE" d="M310.429 139H292.57a.58.58 0 0 0-.571.591v14.023c0 4.08 3.195 7.386 7.138 7.386h4.723c3.944 0 7.139-3.307 7.139-7.386v-14.023a.58.58 0 0 0-.571-.591"/>
        <path fill="#FFFFFE" d="M307.702 158c4.183-2.28 11.362-9.015 10.165-13.755-.318-1.265-1.12-2.22-2.319-2.756-2.772-1.244-6.742.258-7.185.433l1.322 2.66c.956-.376 3.297-.992 4.4-.493.223.1.468.273.598.795.698 2.761-4.917 8.58-8.683 10.633l1.702 2.483"/>
    </g>
</svg>
