<svg xmlns="http://www.w3.org/2000/svg" xmlns:xlink="http://www.w3.org/1999/xlink" width="24" height="24" viewBox="0 0 24 24">
    <defs>
        <path id="a" d="M12.703 8.107H8.221a.758.758 0 0 1-.75-.766c0-.424.335-.766.75-.766h4.482c.415 0 .75.342.75.766a.758.758 0 0 1-.75.766zm2.964 3.212H8.221a.76.76 0 0 1-.75-.766c0-.424.335-.766.75-.766h7.446c.415 0 .75.342.75.766a.761.761 0 0 1-.75.766zm.036 3.207H8.257a.758.758 0 0 1-.75-.766c0-.424.335-.766.75-.766h7.446c.415 0 .75.342.75.766a.758.758 0 0 1-.75.766zm-.036 3.212H8.221a.76.76 0 0 1-.75-.766c0-.424.335-.766.75-.766h7.446c.415 0 .75.342.75.766a.761.761 0 0 1-.75.766zM5.751 3.532a.257.257 0 0 0-.25.255v16.627c0 .137.115.255.25.255H18.21c.136 0 .25-.118.25-.255V3.787a.257.257 0 0 0-.25-.255H5.751zM18.21 22.2H5.751C4.786 22.2 4 21.399 4 20.414V3.787C4 2.802 4.786 2 5.751 2H18.21c.966 0 1.751.802 1.751 1.787v16.627c0 .985-.785 1.787-1.75 1.787z"/>
    </defs>
    <g fill="none" fill-rule="evenodd">
        <mask id="b" fill="#fff">
            <use xlink:href="#a"/>
        </mask>
        <use fill="#1A1919" xlink:href="#a"/>
        <g fill="#333" mask="url(#b)">
            <path d="M0 0h24v24H0z"/>
        </g>
    </g>
</svg>
