<svg xmlns="http://www.w3.org/2000/svg" width="42" height="30" viewBox="0 0 42 30">
    <g fill="none" fill-rule="evenodd">
        <path fill="#530050" fill-rule="nonzero" d="M2.589 2.547v24.906h36.822V2.547H2.589zM1.151 0h39.698C41.485 0 42 .507 42 1.132v27.736c0 .625-.515 1.132-1.15 1.132H1.15C.516 30 0 29.493 0 28.868V1.132C0 .507.515 0 1.15 0z"/>
        <rect width="33" height="21" x="5" y="5" fill="#F59D15" rx="3"/>
        <path fill="#530050" d="M26.076 7.468c.302-.296.616-.451.94-.466.325-.015.612.063.861.233.25.17.427.414.533.733.106.318.075.662-.09 1.032-.061.133-.137.252-.227.355a6.58 6.58 0 0 0-.272.333 114.374 114.374 0 0 1-1.1 1.52c-.158.216-.324.449-.498.7-.173.252-.396.57-.668.955l-2.832 4.007a992.798 992.798 0 0 1-2.832 3.985c-.197.282-.39.56-.578.833a15 15 0 0 1-.6.81c-.151.207-.31.422-.476.644a2.612 2.612 0 0 1-.555.555 1.624 1.624 0 0 1-.657.289c-.234.044-.503-.015-.805-.178-.377-.207-.592-.455-.645-.744a1.533 1.533 0 0 1 .113-.888c.128-.303.302-.6.521-.888.22-.288.404-.536.555-.743.212-.296.423-.596.635-.9.211-.303.422-.603.634-.899l3.999-5.639a624.364 624.364 0 0 1 4.044-5.639zM14 10.754c.09-.607.257-1.18.498-1.72.242-.541.65-.981 1.224-1.322.62-.385 1.261-.58 1.926-.588a3.844 3.844 0 0 1 1.835.422c.559.288 1.023.699 1.393 1.232.37.533.578 1.154.623 1.865a3.266 3.266 0 0 1-.373 1.71c-.28.532-.657.976-1.133 1.331-.476.356-1.012.6-1.609.733a3.455 3.455 0 0 1-1.778-.067c-.816-.251-1.42-.695-1.813-1.332a5.638 5.638 0 0 1-.77-2.109L14 10.754zm8.61 9.59c.075-.503.2-.998.374-1.487.173-.488.487-.895.94-1.22.62-.445 1.272-.704 1.96-.778a3.903 3.903 0 0 1 1.925.255 3.582 3.582 0 0 1 1.507 1.166c.408.533.635 1.184.68 1.954.03.666-.106 1.265-.408 1.798a3.74 3.74 0 0 1-1.212 1.299 3.98 3.98 0 0 1-1.7.621 3.684 3.684 0 0 1-1.846-.233c-.68-.266-1.193-.703-1.54-1.31a5.234 5.234 0 0 1-.658-1.909l-.022-.155zm-5.46-10.7a.943.943 0 0 0-.454.433c-.106.2-.181.41-.226.632.09.444.264.774.52.988.258.215.526.319.805.311.28-.007.532-.122.76-.344.226-.222.346-.54.362-.955a1 1 0 0 0-.17-.566 1.196 1.196 0 0 0-.442-.4 1.764 1.764 0 0 0-.578-.188.968.968 0 0 0-.578.089zm8.292 9.968c-.121.222-.204.452-.25.688a.789.789 0 0 0 .182.666c.106.222.26.381.464.478.204.096.412.14.623.133.212-.008.412-.078.6-.211a.939.939 0 0 0 .375-.555c.09-.326.079-.614-.034-.866a1.197 1.197 0 0 0-.499-.566 1.184 1.184 0 0 0-.736-.144c-.272.03-.514.155-.725.377z"/>
    </g>
</svg>
