<svg xmlns="http://www.w3.org/2000/svg" xmlns:xlink="http://www.w3.org/1999/xlink" width="55" height="55" viewBox="0 0 55 55">
    <defs>
        <path id="a" d="M22.272 27.558c-3.177 0-6.059-1.3-8.165-3.41-.003 0-.004-.01-.007-.01-.005 0-.011-.01-.016-.01a11.981 11.981 0 0 1-3.482-8.462c0-6.566 5.236-11.901 11.67-11.901s11.67 5.335 11.67 11.901c0 6.557-5.236 11.892-11.67 11.892zm0-26.725c-8.02 0-14.545 6.655-14.545 14.833 0 3.596 1.266 6.899 3.364 9.468L1.17 35.248a1.484 1.484 0 0 0 0 2.071c.281.284.649.43 1.017.43a1.43 1.43 0 0 0 1.016-.43l9.937-10.133c2.498 2.062 5.674 3.303 9.13 3.303 8.021 0 14.545-6.654 14.545-14.823 0-8.178-6.524-14.833-14.544-14.833z"/>
    </defs>
    <g fill="none" fill-rule="evenodd">
        <g transform="translate(9 8)">
            <circle cx="22.5" cy="15.5" r="9.5" fill="#F59D15"/>
            <use fill="#530050" xlink:href="#a"/>
            <circle cx="19.5" cy="12.5" r="2.5" fill="#F8E71C"/>
        </g>
    </g>
</svg>
