<svg xmlns="http://www.w3.org/2000/svg" width="35" height="43" viewBox="0 0 35 43">
    <g fill="none" fill-rule="evenodd">
        <circle cx="17.5" cy="26.5" r="11.5" fill="#F59D15"/>
        <path fill="#530050" d="M18.794 23.263a3.213 3.213 0 0 1 1.81 2.886 3.223 3.223 0 0 1-3.216 3.222 3.225 3.225 0 0 1-3.226-3.222c0-1.271.741-2.361 1.82-2.886v-6.9a1.406 1.406 0 1 1 2.812 0v6.9zM13.459 3.687a1.406 1.406 0 1 1 0-2.813l7.266.001a1.406 1.406 0 1 1 0 2.813h-2.231v3.125a1.406 1.406 0 1 1-2.813 0V3.688H13.46zm3.928 36.407c-7.696 0-13.95-6.256-13.95-13.945 0-7.69 6.254-13.945 13.95-13.945 7.688 0 13.941 6.256 13.941 13.945 0 7.69-6.253 13.945-13.94 13.945zm12.347-25.232l2.128-2.126c.544-.55.544-1.44 0-1.988a1.404 1.404 0 0 0-1.987 0l-2.203 2.201a16.657 16.657 0 0 0-10.285-3.558C8.144 9.391.625 16.908.625 26.15c0 9.24 7.519 16.758 16.762 16.758 9.235 0 16.754-7.518 16.754-16.758 0-4.35-1.678-8.305-4.407-11.287z"/>
    </g>
</svg>
